<svg id="VDT_Logo_Image" data-name="VDT_Logo Image" xmlns="http://www.w3.org/2000/svg" viewBox="0 0 150 150"><title>VDT</title><path d="M127.16,84.57a15.56,15.56,0,0,1-.16-2.15s0,0,0,0c-.39-2.36-.45-4.8-1-7.11-2.58-10.23-7-16.06-13.8-25a74.12,74.12,0,0,0-5.47-5.75,7.75,7.75,0,0,1-.6-.81c.72-.12,1.42,0,1.81-.35a9,9,0,0,0,2.06-2.3c.12-.19-.6-1.18-1.12-1.43A44.85,44.85,0,0,0,95.2,35.13a51.7,51.7,0,0,0-18.31.52A35.58,35.58,0,0,1,70,36.94c-7.59.16-15.19,0-22.79.08-.48,0-1.27.37-1.37.73-.29,1,.68.83,1.22.94,3.41.69,5.27,2.31,5.61,5.78.37,3.65.32,7.36.35,11.05.08,10.23.09,20.46.18,30.69.05,5.35-1.13,7.09-6.07,8.37-1,.25-.91.76-.66,1.51a11.54,11.54,0,0,0,1.48.19c7.44,0,14.89-.13,22.34-.09,5.28,0,10.5-.09,15.41-2.47s9.1-5.59,11.83-10.43a33.47,33.47,0,0,0,3.93-23.78c-1.82-9-6.51-15.94-15.12-19.84-.43-.2-.82-.48-1.23-.72,7.15-.56,13.86.91,20.44,3.41-1,.68-2.08,1.1-3.07,1.65a1.59,1.59,0,0,0-.37,2.73c.4.42.81.85,1.23,1.25,2.36,2.23,4.71,4.47,7.09,6.67a5,5,0,0,1,1.05,1.3,3.87,3.87,0,0,1,.53.54,7.8,7.8,0,0,1,2.11,3.34,54.48,54.48,0,0,1,5.75,11.1s1.15,2.78,1.15,2.79a36.59,36.59,0,0,1,2,10.49c.13,1.35.41,2.69.51,4,.28,3.84.38,7.65-1.45,11.25a4,4,0,0,1-4.07,2.43,13.6,13.6,0,0,0-.88-1.47s-.83.28-.88.52a3,3,0,0,0,0,1.89,6.5,6.5,0,0,0,1.73,1.74,2.62,2.62,0,0,0,3.24.09c4.07-2.4,5.46-6.33,5.84-10.63C127.34,91,127.2,87.89,127.16,84.57ZM67.61,39.23c3.7-2,7.75-2.67,11.9-3.28.34,1,.6,1.86.81,2.51l-13.7,4.17C65.76,41,66,40.11,67.61,39.23Zm14.07,2-3.92-.85C80.26,39.58,81.05,39.77,81.68,41.27ZM65.93,44.4a1.06,1.06,0,0,1,.45-.52c2.69-1,5.38-1.93,8.08-2.88a3.32,3.32,0,0,1,.73,0c2.09.42,4.35.81,6.55,1.39A2.48,2.48,0,0,1,83,43.76a30.52,30.52,0,0,1,1.38,4.45,2.79,2.79,0,0,1-.34,2,42,42,0,0,1-2.93,3.61,2,2,0,0,1-2.72.53C76.46,53.22,74.58,52,72.64,51c-1.22-.69-2.5-1.27-3.77-1.87-.61-.29-1.29-.44-1.87-.79A2.66,2.66,0,0,1,65.93,44.4ZM87.37,59.33c.91,4.33,1.8,8.66,1.64,13.11a3.27,3.27,0,0,1-.13.54l-.47.17c-.56-1.37-1.2-2.7-1.68-4.1-.85-2.46-1.63-5-2.39-7.45a3.59,3.59,0,0,1,1.86-3.39.89.89,0,0,1,.73.21A1.94,1.94,0,0,1,87.37,59.33Zm-.45-4.62a3.57,3.57,0,0,1-1.53,3.12A4.27,4.27,0,0,0,84,63.46c1.23,2.85,1.94,5.92,3,8.84.52,1.44,1.42,2.75,2,4.18a4.36,4.36,0,0,1,0,1.79c-.08,1.2-.1,2.41-.29,3.59a68,68,0,0,1-1.45,7.55,4.21,4.21,0,0,1-6.06,2.74,22,22,0,0,0,0-2.59,56.67,56.67,0,0,0-4.69-16.63,3.12,3.12,0,0,0-1.1-1.23c2.63,6,4.85,12.06,5.18,18.61l-.51.16a6.31,6.31,0,0,1-.4-1C78.78,86,78,82.39,77.09,78.86A19.12,19.12,0,0,0,76,76.22c1.14,4.59,2.24,9.2,3.47,13.77.29,1.09.19,1.66-.89,2.17-3.15,1.5-6.48,1.52-9.83,1.43a2.07,2.07,0,0,1-2.2-2.21c-.1-3.11-.19-6.21-.22-9.32,0-5.35-.06-10.7-.08-16,0-.37,0-.74.11-1.47A50.83,50.83,0,0,0,71,68.26c2.52,1.57,3.44,4,4.31,6.64a9.21,9.21,0,0,0,.7,1.36c-.61-2.55-.88-5.26-3.1-7.13-.35-.3-1.12-.59-.4-1.35.11-.12-.14-.76-.37-1-2.73-3-5.49-5.88-8.24-8.82a21.2,21.2,0,0,0-1.88-2,26.38,26.38,0,0,0-2.75-1.69,43,43,0,0,1,2.06-4.16c1.23-2,2.68-2.24,4.71-1.16a8.94,8.94,0,0,0,2.16.86c3.43.8,5.85,3.41,8.91,4.88,3.21,1.53,3.61.81,5.55-1.37.8-.9,1.54-1.86,2.39-2.89C86.72,51.43,86.81,53.08,86.92,54.71ZM59.53,56.2l.58-.58a74.66,74.66,0,0,1,11.26,11.7l-.36.36Zm23-18.3A2.45,2.45,0,0,1,81,37.62a1.83,1.83,0,0,1-.56-1.33c0-.24.52-.67.85-.72,9.56-1.45,18.55.54,27.19,4.62a6.45,6.45,0,0,1,.87.52,4.23,4.23,0,0,1,.39.57l-2.65,1.78c-.62-.72-.91-1.37-1.37-1.54A56.74,56.74,0,0,0,82.5,37.9Zm36.29,65.89c-.44-.11-1-.09-1.29-.35-.64-.57-1.48-1.21-.6-2.37l1.1.89c.32.47.63.94,1,1.4C118.9,103.51,118.84,103.65,118.79,103.79Zm2.57,0a8.7,8.7,0,0,1-1.92.83l.41-2.23c2.94-1.07,3.62-3.9,4.14-6.78.88-4.89-.12-9.71-.78-14.51a37.94,37.94,0,0,0-2.17-9.3A109.6,109.6,0,0,0,114.6,59c-2.18-3.81-5.39-6.82-8.68-9.69-.88-.77-1.76-1.52-2.67-2.25-.72-.56-1.47-1.08-.71-2.12a2,2,0,0,1,2.92-.51,97.36,97.36,0,0,1,7.63,8c6.17,7.83,11.72,16.52,12.83,26.68a117.39,117.39,0,0,1,.78,13.37C126.67,97,125.17,101,121.36,103.84Z" fill="#373737"/><path d="M3.84,13.13l-.11-1.49H30.2c.05.49.08.89.14,1.44-1.07.11-2.07.18-3.06.34A11,11,0,0,0,25,14a2.66,2.66,0,0,0-1.74,3.68C24.4,21,25.74,24.28,27,27.57l8.82,22.79c.1.26.26.49.54,1,.52-1.28,1-2.31,1.36-3.35q3-8.09,6.07-16.19c1.52-4.1,3-8.21,4.46-12.34a11.15,11.15,0,0,0,.5-3,2.82,2.82,0,0,0-2.36-3c-1.44-.28-2.91-.39-4.45-.59l-.06-1.34h17V13A6.07,6.07,0,0,0,54,15.11a14,14,0,0,0-2,3.51c-3.29,8.73-6.5,17.49-9.76,26.24-1.82,4.89-3.69,9.76-5.52,14.65-1.2,3.22-2.35,6.46-3.58,9.66a1.87,1.87,0,0,1-1,1.07c-.68.19-1.11-.26-1.39-1q-4.79-12-9.61-24-5.49-13.65-11-27.3c-.09-.23-.22-.46-.32-.69C8.71,14.68,7.09,12.76,3.84,13.13Z" fill="#373737"/><path d="M145.14,89.38s0-.06,0-.09v-.45h0c0-.48.05-1,.08-1.43H93.93v13.08a7.41,7.41,0,0,0,1.76-3.32,9,9,0,0,1,7.73-6.62,26,26,0,0,1,4.57-.47c4.78-.12,4.91.07,5,4.9q.16,19.65.38,39.3a5.7,5.7,0,0,1-4.84,6c-.91.17-1.82.36-2.72.54l.18.5h27.59l0-.76c-.94-.11-1.89-.18-2.82-.35-3.3-.64-4.92-2.56-4.93-5.92,0-13.42,0-26.83-.18-40.25,0-3,.75-4.2,3.83-3.81a39.6,39.6,0,0,0,5.22-.06c6.6-.06,7.32,2.28,8.91,8.64a11.39,11.39,0,0,0,.78,1.8l.78-.12v-11S145.14,89.41,145.14,89.38Z" fill="#373737"/><path d="M76,76.28c-.62-2.56-.89-5.26-3.11-7.14-.35-.3-1.12-.59-.4-1.34.11-.12-.14-.76-.38-1-2.72-3-5.49-5.88-8.23-8.82a21.3,21.3,0,0,0-1.89-2,25.36,25.36,0,0,0-2.75-1.69,43,43,0,0,1,2.06-4.16c1.23-2,2.69-2.24,4.71-1.16a9.37,9.37,0,0,0,2.16.86c3.43.8,5.85,3.41,8.91,4.87,3.21,1.53,3.61.81,5.55-1.37.81-.9,1.54-1.86,2.39-2.9,1.7,1,1.8,2.7,1.9,4.33a3.53,3.53,0,0,1-1.52,3.11A4.27,4.27,0,0,0,84,63.47c1.23,2.85,1.94,5.92,3,8.84.52,1.44,1.42,2.75,2,4.17a4.24,4.24,0,0,1,0,1.8,35.69,35.69,0,0,1-.29,3.59,63.67,63.67,0,0,1-1.45,7.55,4.2,4.2,0,0,1-6.06,2.74,22.18,22.18,0,0,0,0-2.59,56.69,56.69,0,0,0-4.7-16.63,3.12,3.12,0,0,0-1.1-1.23c2.63,6,4.85,12.06,5.19,18.61l-.51.16a6.31,6.31,0,0,1-.4-1C78.79,86,78,82.4,77.09,78.87A17.39,17.39,0,0,0,76,76.23Zm11.46,1.06.71-.35L85.8,72l-.58.26C86,73.93,86.71,75.63,87.45,77.34Z" fill="#9465a9"/><path d="M119.46,104.66c.14-.79.25-1.4.41-2.23,2.93-1.07,3.61-3.9,4.13-6.78.88-4.89-.13-9.71-.78-14.51a38,38,0,0,0-2.18-9.3A110.45,110.45,0,0,0,114.59,59c-2.17-3.8-5.39-6.81-8.68-9.68-.88-.77-1.76-1.52-2.67-2.24-.72-.57-1.47-1.09-.72-2.13a2,2,0,0,1,2.93-.51,99.2,99.2,0,0,1,7.64,8c6.16,7.83,11.72,16.51,12.83,26.68a114.85,114.85,0,0,1,.79,13.36c0,4.5-1.53,8.56-5.33,11.39A8.91,8.91,0,0,1,119.46,104.66Z" fill="#9465a9"/><path d="M75.18,41c2.09.43,4.34.81,6.55,1.39A2.48,2.48,0,0,1,83,43.77a30.52,30.52,0,0,1,1.38,4.45,2.83,2.83,0,0,1-.33,2,42.11,42.11,0,0,1-2.94,3.61,1.94,1.94,0,0,1-2.72.53c-1.91-1.13-3.79-2.3-5.72-3.39-1.23-.69-2.51-1.27-3.78-1.88-.61-.29-1.29-.44-1.87-.78a2.66,2.66,0,0,1-1.07-3.89,1.06,1.06,0,0,1,.45-.52c2.69-1,5.38-1.93,8.07-2.88A2.82,2.82,0,0,1,75.18,41Z" fill="#fff" opacity="0.6"/><path d="M109.69,41.28l-2.64,1.78c-.62-.72-.91-1.37-1.37-1.54a57,57,0,0,0-23.19-3.61A2.48,2.48,0,0,1,81,37.63a1.87,1.87,0,0,1-.56-1.33c0-.24.52-.67.85-.72,9.57-1.45,18.56.53,27.19,4.61a6.55,6.55,0,0,1,.88.52A3.19,3.19,0,0,1,109.69,41.28Z" fill="#9465a9"/><path d="M79.5,36l.81,2.52L66.6,42.64c-.86-1.61-.65-2.51,1-3.39C71.29,37.27,75.34,36.58,79.5,36Z" fill="#9465a9"/><path d="M88.41,73.15c-.56-1.36-1.2-2.7-1.68-4.09-.85-2.46-1.63-5-2.4-7.45a3.62,3.62,0,0,1,1.86-3.4.91.91,0,0,1,.74.22,2,2,0,0,1,.44.91c.9,4.32,1.8,8.65,1.64,13.11a2.65,2.65,0,0,1-.13.54Z" fill="#fff" opacity="0.6"/><path d="M60.11,55.64A75,75,0,0,1,71.37,67.33l-.36.36L59.53,56.22Z" fill="#fff" opacity="0.6"/><path d="M118,101.94l.95,1.42-.15.43c-.44-.11-1-.09-1.3-.36-.64-.57-1.47-1.2-.6-2.37l1.14.92Z" fill="#9465a9"/><path d="M77.74,40.44c2.51-.85,3.3-.66,3.93.84Z" fill="#fff" opacity="0.6"/><path d="M87.45,77.34c-.74-1.71-1.48-3.41-2.23-5.12L85.8,72l2.36,5Z"/></svg>